<svg xmlns="http://www.w3.org/2000/svg" xmlns:xlink="http://www.w3.org/1999/xlink" width="500" zoomAndPan="magnify" viewBox="0 0 375 374.999991" height="500" preserveAspectRatio="xMidYMid meet" version="1.0"><defs><g/><clipPath id="f9d9b4edc3"><path d="M 5.34375 9.054688 L 88.710938 9.054688 L 88.710938 91.140625 L 5.34375 91.140625 Z M 5.34375 9.054688 " clip-rule="nonzero"/></clipPath><clipPath id="ca1ee2c835"><path d="M 22.59375 9.054688 L 71.273438 9.054688 C 75.851562 9.054688 80.238281 10.871094 83.472656 14.105469 C 86.707031 17.339844 88.523438 21.726562 88.523438 26.304688 L 88.523438 73.890625 C 88.523438 78.464844 86.707031 82.851562 83.472656 86.089844 C 80.238281 89.324219 75.851562 91.140625 71.273438 91.140625 L 22.59375 91.140625 C 18.019531 91.140625 13.628906 89.324219 10.394531 86.089844 C 7.160156 82.851562 5.34375 78.464844 5.34375 73.890625 L 5.34375 26.304688 C 5.34375 21.726562 7.160156 17.339844 10.394531 14.105469 C 13.628906 10.871094 18.019531 9.054688 22.59375 9.054688 Z M 22.59375 9.054688 " clip-rule="nonzero"/></clipPath><clipPath id="1d87b5372b"><path d="M 5.34375 9.054688 L 88.167969 9.054688 L 88.167969 91.054688 L 5.34375 91.054688 Z M 5.34375 9.054688 " clip-rule="nonzero"/></clipPath><clipPath id="117a1d1082"><path d="M 22.589844 9.054688 L 71.265625 9.054688 C 75.839844 9.054688 80.226562 10.875 83.460938 14.109375 C 86.695312 17.34375 88.511719 21.730469 88.511719 26.304688 L 88.511719 73.882812 C 88.511719 78.457031 86.695312 82.84375 83.460938 86.078125 C 80.226562 89.3125 75.839844 91.128906 71.265625 91.128906 L 22.589844 91.128906 C 18.015625 91.128906 13.628906 89.3125 10.394531 86.078125 C 7.160156 82.84375 5.34375 78.457031 5.34375 73.882812 L 5.34375 26.304688 C 5.34375 21.730469 7.160156 17.34375 10.394531 14.109375 C 13.628906 10.875 18.015625 9.054688 22.589844 9.054688 Z M 22.589844 9.054688 " clip-rule="nonzero"/></clipPath><clipPath id="8b4db2002e"><path d="M 99.054688 9.054688 L 182.421875 9.054688 L 182.421875 91.140625 L 99.054688 91.140625 Z M 99.054688 9.054688 " clip-rule="nonzero"/></clipPath><clipPath id="7cd9350c49"><path d="M 116.304688 9.054688 L 164.984375 9.054688 C 169.558594 9.054688 173.949219 10.871094 177.183594 14.105469 C 180.417969 17.339844 182.234375 21.726562 182.234375 26.304688 L 182.234375 73.890625 C 182.234375 78.464844 180.417969 82.851562 177.183594 86.089844 C 173.949219 89.324219 169.558594 91.140625 164.984375 91.140625 L 116.304688 91.140625 C 111.730469 91.140625 107.339844 89.324219 104.105469 86.089844 C 100.871094 82.851562 99.054688 78.464844 99.054688 73.890625 L 99.054688 26.304688 C 99.054688 21.726562 100.871094 17.339844 104.105469 14.105469 C 107.339844 10.871094 111.730469 9.054688 116.304688 9.054688 Z M 116.304688 9.054688 " clip-rule="nonzero"/></clipPath><clipPath id="f8dd2bac7c"><path d="M 99.054688 9.054688 L 181.878906 9.054688 L 181.878906 91.054688 L 99.054688 91.054688 Z M 99.054688 9.054688 " clip-rule="nonzero"/></clipPath><clipPath id="cfe84ce483"><path d="M 116.300781 9.054688 L 164.976562 9.054688 C 169.550781 9.054688 173.9375 10.875 177.171875 14.109375 C 180.40625 17.34375 182.222656 21.730469 182.222656 26.304688 L 182.222656 73.882812 C 182.222656 78.457031 180.40625 82.84375 177.171875 86.078125 C 173.9375 89.3125 169.550781 91.128906 164.976562 91.128906 L 116.300781 91.128906 C 111.726562 91.128906 107.339844 89.3125 104.105469 86.078125 C 100.871094 82.84375 99.054688 78.457031 99.054688 73.882812 L 99.054688 26.304688 C 99.054688 21.730469 100.871094 17.34375 104.105469 14.109375 C 107.339844 10.875 111.726562 9.054688 116.300781 9.054688 Z M 116.300781 9.054688 " clip-rule="nonzero"/></clipPath><clipPath id="9f3c78a92e"><path d="M 192.765625 9.054688 L 276 9.054688 L 276 91.140625 L 192.765625 91.140625 Z M 192.765625 9.054688 " clip-rule="nonzero"/></clipPath><clipPath id="ee9767f899"><path d="M 210.015625 9.054688 L 258.695312 9.054688 C 263.269531 9.054688 267.660156 10.871094 270.894531 14.105469 C 274.128906 17.339844 275.945312 21.726562 275.945312 26.304688 L 275.945312 73.890625 C 275.945312 78.464844 274.128906 82.851562 270.894531 86.089844 C 267.660156 89.324219 263.269531 91.140625 258.695312 91.140625 L 210.015625 91.140625 C 205.441406 91.140625 201.050781 89.324219 197.816406 86.089844 C 194.582031 82.851562 192.765625 78.464844 192.765625 73.890625 L 192.765625 26.304688 C 192.765625 21.726562 194.582031 17.339844 197.816406 14.105469 C 201.050781 10.871094 205.441406 9.054688 210.015625 9.054688 Z M 210.015625 9.054688 " clip-rule="nonzero"/></clipPath><clipPath id="42da8f5d9f"><path d="M 192.765625 9.054688 L 275.585938 9.054688 L 275.585938 91.054688 L 192.765625 91.054688 Z M 192.765625 9.054688 " clip-rule="nonzero"/></clipPath><clipPath id="195498e87e"><path d="M 210.011719 9.054688 L 258.6875 9.054688 C 263.261719 9.054688 267.648438 10.875 270.882812 14.109375 C 274.117188 17.34375 275.933594 21.730469 275.933594 26.304688 L 275.933594 73.882812 C 275.933594 78.457031 274.117188 82.84375 270.882812 86.078125 C 267.648438 89.3125 263.261719 91.128906 258.6875 91.128906 L 210.011719 91.128906 C 205.4375 91.128906 201.050781 89.3125 197.816406 86.078125 C 194.582031 82.84375 192.765625 78.457031 192.765625 73.882812 L 192.765625 26.304688 C 192.765625 21.730469 194.582031 17.34375 197.816406 14.109375 C 201.050781 10.875 205.4375 9.054688 210.011719 9.054688 Z M 210.011719 9.054688 " clip-rule="nonzero"/></clipPath><clipPath id="779ed6ef32"><path d="M 286.476562 9.054688 L 369.84375 9.054688 L 369.84375 91.140625 L 286.476562 91.140625 Z M 286.476562 9.054688 " clip-rule="nonzero"/></clipPath><clipPath id="565f0f87c2"><path d="M 303.726562 9.054688 L 352.40625 9.054688 C 356.980469 9.054688 361.371094 10.871094 364.605469 14.105469 C 367.839844 17.339844 369.65625 21.726562 369.65625 26.304688 L 369.65625 73.890625 C 369.65625 78.464844 367.839844 82.851562 364.605469 86.089844 C 361.371094 89.324219 356.980469 91.140625 352.40625 91.140625 L 303.726562 91.140625 C 299.148438 91.140625 294.761719 89.324219 291.527344 86.089844 C 288.292969 82.851562 286.476562 78.464844 286.476562 73.890625 L 286.476562 26.304688 C 286.476562 21.726562 288.292969 17.339844 291.527344 14.105469 C 294.761719 10.871094 299.148438 9.054688 303.726562 9.054688 Z M 303.726562 9.054688 " clip-rule="nonzero"/></clipPath><clipPath id="d1c02b48e9"><path d="M 286.476562 9.054688 L 369.296875 9.054688 L 369.296875 91.054688 L 286.476562 91.054688 Z M 286.476562 9.054688 " clip-rule="nonzero"/></clipPath><clipPath id="781627c04a"><path d="M 303.722656 9.054688 L 352.398438 9.054688 C 356.972656 9.054688 361.359375 10.875 364.59375 14.109375 C 367.828125 17.34375 369.644531 21.730469 369.644531 26.304688 L 369.644531 73.882812 C 369.644531 78.457031 367.828125 82.84375 364.59375 86.078125 C 361.359375 89.3125 356.972656 91.128906 352.398438 91.128906 L 303.722656 91.128906 C 299.148438 91.128906 294.761719 89.3125 291.527344 86.078125 C 288.292969 82.84375 286.476562 78.457031 286.476562 73.882812 L 286.476562 26.304688 C 286.476562 21.730469 288.292969 17.34375 291.527344 14.109375 C 294.761719 10.875 299.148438 9.054688 303.722656 9.054688 Z M 303.722656 9.054688 " clip-rule="nonzero"/></clipPath><clipPath id="74d6071bf9"><path d="M 5.34375 100.75 L 88.746094 100.75 L 88.746094 182.554688 L 5.34375 182.554688 Z M 5.34375 100.75 " clip-rule="nonzero"/></clipPath><clipPath id="a5279d9145"><path d="M 22.59375 100.75 L 71.273438 100.75 C 75.851562 100.75 80.238281 102.566406 83.472656 105.800781 C 86.707031 109.035156 88.523438 113.425781 88.523438 118 L 88.523438 165.304688 C 88.523438 169.878906 86.707031 174.265625 83.472656 177.503906 C 80.238281 180.738281 75.851562 182.554688 71.273438 182.554688 L 22.59375 182.554688 C 18.019531 182.554688 13.628906 180.738281 10.394531 177.503906 C 7.160156 174.265625 5.34375 169.878906 5.34375 165.304688 L 5.34375 118 C 5.34375 113.425781 7.160156 109.035156 10.394531 105.800781 C 13.628906 102.566406 18.019531 100.75 22.59375 100.75 Z M 22.59375 100.75 " clip-rule="nonzero"/></clipPath><clipPath id="797265c3d7"><path d="M 5.34375 100.75 L 88.167969 100.75 L 88.167969 182.753906 L 5.34375 182.753906 Z M 5.34375 100.75 " clip-rule="nonzero"/></clipPath><clipPath id="ee13f21f4c"><path d="M 22.589844 100.75 L 71.265625 100.75 C 75.839844 100.75 80.226562 102.570312 83.460938 105.804688 C 86.695312 109.039062 88.511719 113.425781 88.511719 118 L 88.511719 165.296875 C 88.511719 169.871094 86.695312 174.257812 83.460938 177.492188 C 80.226562 180.726562 75.839844 182.546875 71.265625 182.546875 L 22.589844 182.546875 C 18.015625 182.546875 13.628906 180.726562 10.394531 177.492188 C 7.160156 174.257812 5.34375 169.871094 5.34375 165.296875 L 5.34375 118 C 5.34375 113.425781 7.160156 109.039062 10.394531 105.804688 C 13.628906 102.570312 18.015625 100.75 22.589844 100.75 Z M 22.589844 100.75 " clip-rule="nonzero"/></clipPath><clipPath id="063abe993b"><path d="M 99.054688 100.75 L 182.457031 100.75 L 182.457031 182.554688 L 99.054688 182.554688 Z M 99.054688 100.75 " clip-rule="nonzero"/></clipPath><clipPath id="1f57d0f1c8"><path d="M 116.304688 100.75 L 164.984375 100.75 C 169.558594 100.75 173.949219 102.566406 177.183594 105.800781 C 180.417969 109.035156 182.234375 113.425781 182.234375 118 L 182.234375 165.304688 C 182.234375 169.878906 180.417969 174.265625 177.183594 177.503906 C 173.949219 180.738281 169.558594 182.554688 164.984375 182.554688 L 116.304688 182.554688 C 111.730469 182.554688 107.339844 180.738281 104.105469 177.503906 C 100.871094 174.265625 99.054688 169.878906 99.054688 165.304688 L 99.054688 118 C 99.054688 113.425781 100.871094 109.035156 104.105469 105.800781 C 107.339844 102.566406 111.730469 100.75 116.304688 100.75 Z M 116.304688 100.75 " clip-rule="nonzero"/></clipPath><clipPath id="8da2d6adc7"><path d="M 99.054688 100.75 L 181.878906 100.75 L 181.878906 182.753906 L 99.054688 182.753906 Z M 99.054688 100.75 " clip-rule="nonzero"/></clipPath><clipPath id="0fdba34f22"><path d="M 116.300781 100.75 L 164.976562 100.75 C 169.550781 100.75 173.9375 102.570312 177.171875 105.804688 C 180.40625 109.039062 182.222656 113.425781 182.222656 118 L 182.222656 165.296875 C 182.222656 169.871094 180.40625 174.257812 177.171875 177.492188 C 173.9375 180.726562 169.550781 182.546875 164.976562 182.546875 L 116.300781 182.546875 C 111.726562 182.546875 107.339844 180.726562 104.105469 177.492188 C 100.871094 174.257812 99.054688 169.871094 99.054688 165.296875 L 99.054688 118 C 99.054688 113.425781 100.871094 109.039062 104.105469 105.804688 C 107.339844 102.570312 111.726562 100.75 116.300781 100.75 Z M 116.300781 100.75 " clip-rule="nonzero"/></clipPath><clipPath id="a59596edf5"><path d="M 192.765625 100.75 L 276 100.75 L 276 182.835938 L 192.765625 182.835938 Z M 192.765625 100.75 " clip-rule="nonzero"/></clipPath><clipPath id="9b7690aed3"><path d="M 210.015625 100.75 L 258.695312 100.75 C 263.269531 100.75 267.660156 102.566406 270.894531 105.800781 C 274.128906 109.035156 275.945312 113.425781 275.945312 118 L 275.945312 165.585938 C 275.945312 170.160156 274.128906 174.550781 270.894531 177.785156 C 267.660156 181.019531 263.269531 182.835938 258.695312 182.835938 L 210.015625 182.835938 C 205.441406 182.835938 201.050781 181.019531 197.816406 177.785156 C 194.582031 174.550781 192.765625 170.160156 192.765625 165.585938 L 192.765625 118 C 192.765625 113.425781 194.582031 109.035156 197.816406 105.800781 C 201.050781 102.566406 205.441406 100.75 210.015625 100.75 Z M 210.015625 100.75 " clip-rule="nonzero"/></clipPath><clipPath id="e5d5627743"><path d="M 192.765625 100.75 L 275.585938 100.75 L 275.585938 182.753906 L 192.765625 182.753906 Z M 192.765625 100.75 " clip-rule="nonzero"/></clipPath><clipPath id="9e99fbcf57"><path d="M 210.011719 100.75 L 258.6875 100.75 C 263.261719 100.75 267.648438 102.570312 270.882812 105.804688 C 274.117188 109.039062 275.933594 113.425781 275.933594 118 L 275.933594 165.578125 C 275.933594 170.152344 274.117188 174.539062 270.882812 177.773438 C 267.648438 181.007812 263.261719 182.828125 258.6875 182.828125 L 210.011719 182.828125 C 205.4375 182.828125 201.050781 181.007812 197.816406 177.773438 C 194.582031 174.539062 192.765625 170.152344 192.765625 165.578125 L 192.765625 118 C 192.765625 113.425781 194.582031 109.039062 197.816406 105.804688 C 201.050781 102.570312 205.4375 100.75 210.011719 100.75 Z M 210.011719 100.75 " clip-rule="nonzero"/></clipPath><clipPath id="afc9069d3a"><path d="M 286.476562 100.75 L 369.878906 100.75 L 369.878906 182.554688 L 286.476562 182.554688 Z M 286.476562 100.75 " clip-rule="nonzero"/></clipPath><clipPath id="82b024c65c"><path d="M 303.726562 100.75 L 352.40625 100.75 C 356.980469 100.75 361.371094 102.566406 364.605469 105.800781 C 367.839844 109.035156 369.65625 113.425781 369.65625 118 L 369.65625 165.304688 C 369.65625 169.878906 367.839844 174.265625 364.605469 177.503906 C 361.371094 180.738281 356.980469 182.554688 352.40625 182.554688 L 303.726562 182.554688 C 299.148438 182.554688 294.761719 180.738281 291.527344 177.503906 C 288.292969 174.265625 286.476562 169.878906 286.476562 165.304688 L 286.476562 118 C 286.476562 113.425781 288.292969 109.035156 291.527344 105.800781 C 294.761719 102.566406 299.148438 100.75 303.726562 100.75 Z M 303.726562 100.75 " clip-rule="nonzero"/></clipPath><clipPath id="2e235bcec0"><path d="M 286.476562 100.75 L 369.296875 100.75 L 369.296875 182.753906 L 286.476562 182.753906 Z M 286.476562 100.75 " clip-rule="nonzero"/></clipPath><clipPath id="932291e470"><path d="M 303.722656 100.75 L 352.398438 100.75 C 356.972656 100.75 361.359375 102.570312 364.59375 105.804688 C 367.828125 109.039062 369.644531 113.425781 369.644531 118 L 369.644531 165.296875 C 369.644531 169.871094 367.828125 174.257812 364.59375 177.492188 C 361.359375 180.726562 356.972656 182.546875 352.398438 182.546875 L 303.722656 182.546875 C 299.148438 182.546875 294.761719 180.726562 291.527344 177.492188 C 288.292969 174.257812 286.476562 169.871094 286.476562 165.296875 L 286.476562 118 C 286.476562 113.425781 288.292969 109.039062 291.527344 105.804688 C 294.761719 102.570312 299.148438 100.75 303.722656 100.75 Z M 303.722656 100.75 " clip-rule="nonzero"/></clipPath><clipPath id="3fbe5ec91b"><path d="M 5.34375 192.445312 L 88.746094 192.445312 L 88.746094 274.25 L 5.34375 274.25 Z M 5.34375 192.445312 " clip-rule="nonzero"/></clipPath><clipPath id="e6fa226daf"><path d="M 22.59375 192.445312 L 71.273438 192.445312 C 75.851562 192.445312 80.238281 194.261719 83.472656 197.496094 C 86.707031 200.734375 88.523438 205.121094 88.523438 209.695312 L 88.523438 257 C 88.523438 261.574219 86.707031 265.964844 83.472656 269.199219 C 80.238281 272.433594 75.851562 274.25 71.273438 274.25 L 22.59375 274.25 C 18.019531 274.25 13.628906 272.433594 10.394531 269.199219 C 7.160156 265.964844 5.34375 261.574219 5.34375 257 L 5.34375 209.695312 C 5.34375 205.121094 7.160156 200.734375 10.394531 197.496094 C 13.628906 194.261719 18.019531 192.445312 22.59375 192.445312 Z M 22.59375 192.445312 " clip-rule="nonzero"/></clipPath><clipPath id="e20cd956ab"><path d="M 5.34375 192.445312 L 88.167969 192.445312 L 88.167969 274.449219 L 5.34375 274.449219 Z M 5.34375 192.445312 " clip-rule="nonzero"/></clipPath><clipPath id="2c6a389634"><path d="M 22.589844 192.449219 L 71.265625 192.449219 C 75.839844 192.449219 80.226562 194.265625 83.460938 197.5 C 86.695312 200.734375 88.511719 205.121094 88.511719 209.695312 L 88.511719 256.992188 C 88.511719 261.566406 86.695312 265.953125 83.460938 269.1875 C 80.226562 272.421875 75.839844 274.242188 71.265625 274.242188 L 22.589844 274.242188 C 18.015625 274.242188 13.628906 272.421875 10.394531 269.1875 C 7.160156 265.953125 5.34375 261.566406 5.34375 256.992188 L 5.34375 209.695312 C 5.34375 205.121094 7.160156 200.734375 10.394531 197.5 C 13.628906 194.265625 18.015625 192.449219 22.589844 192.449219 Z M 22.589844 192.449219 " clip-rule="nonzero"/></clipPath><clipPath id="b27998db31"><path d="M 99.054688 192.445312 L 182.457031 192.445312 L 182.457031 274.25 L 99.054688 274.25 Z M 99.054688 192.445312 " clip-rule="nonzero"/></clipPath><clipPath id="76fc80c56c"><path d="M 116.304688 192.445312 L 164.984375 192.445312 C 169.558594 192.445312 173.949219 194.261719 177.183594 197.496094 C 180.417969 200.734375 182.234375 205.121094 182.234375 209.695312 L 182.234375 257 C 182.234375 261.574219 180.417969 265.964844 177.183594 269.199219 C 173.949219 272.433594 169.558594 274.25 164.984375 274.25 L 116.304688 274.25 C 111.730469 274.25 107.339844 272.433594 104.105469 269.199219 C 100.871094 265.964844 99.054688 261.574219 99.054688 257 L 99.054688 209.695312 C 99.054688 205.121094 100.871094 200.734375 104.105469 197.496094 C 107.339844 194.261719 111.730469 192.445312 116.304688 192.445312 Z M 116.304688 192.445312 " clip-rule="nonzero"/></clipPath><clipPath id="db71edbbac"><path d="M 99.054688 192.445312 L 181.878906 192.445312 L 181.878906 274.449219 L 99.054688 274.449219 Z M 99.054688 192.445312 " clip-rule="nonzero"/></clipPath><clipPath id="88e799551e"><path d="M 116.300781 192.449219 L 164.976562 192.449219 C 169.550781 192.449219 173.9375 194.265625 177.171875 197.5 C 180.40625 200.734375 182.222656 205.121094 182.222656 209.695312 L 182.222656 256.992188 C 182.222656 261.566406 180.40625 265.953125 177.171875 269.1875 C 173.9375 272.421875 169.550781 274.242188 164.976562 274.242188 L 116.300781 274.242188 C 111.726562 274.242188 107.339844 272.421875 104.105469 269.1875 C 100.871094 265.953125 99.054688 261.566406 99.054688 256.992188 L 99.054688 209.695312 C 99.054688 205.121094 100.871094 200.734375 104.105469 197.5 C 107.339844 194.265625 111.726562 192.449219 116.300781 192.449219 Z M 116.300781 192.449219 " clip-rule="nonzero"/></clipPath><clipPath id="7c3ce4635b"><path d="M 192.765625 192.445312 L 276 192.445312 L 276 274.53125 L 192.765625 274.53125 Z M 192.765625 192.445312 " clip-rule="nonzero"/></clipPath><clipPath id="c913970cfc"><path d="M 210.015625 192.445312 L 258.695312 192.445312 C 263.269531 192.445312 267.660156 194.261719 270.894531 197.496094 C 274.128906 200.734375 275.945312 205.121094 275.945312 209.695312 L 275.945312 257.28125 C 275.945312 261.855469 274.128906 266.246094 270.894531 269.480469 C 267.660156 272.714844 263.269531 274.53125 258.695312 274.53125 L 210.015625 274.53125 C 205.441406 274.53125 201.050781 272.714844 197.816406 269.480469 C 194.582031 266.246094 192.765625 261.855469 192.765625 257.28125 L 192.765625 209.695312 C 192.765625 205.121094 194.582031 200.734375 197.816406 197.496094 C 201.050781 194.261719 205.441406 192.445312 210.015625 192.445312 Z M 210.015625 192.445312 " clip-rule="nonzero"/></clipPath><clipPath id="e7640f28ba"><path d="M 192.765625 192.445312 L 275.585938 192.445312 L 275.585938 274.449219 L 192.765625 274.449219 Z M 192.765625 192.445312 " clip-rule="nonzero"/></clipPath><clipPath id="e6a9b6f474"><path d="M 210.011719 192.449219 L 258.6875 192.449219 C 263.261719 192.449219 267.648438 194.265625 270.882812 197.5 C 274.117188 200.734375 275.933594 205.121094 275.933594 209.695312 L 275.933594 257.273438 C 275.933594 261.847656 274.117188 266.238281 270.882812 269.472656 C 267.648438 272.707031 263.261719 274.523438 258.6875 274.523438 L 210.011719 274.523438 C 205.4375 274.523438 201.050781 272.707031 197.816406 269.472656 C 194.582031 266.238281 192.765625 261.847656 192.765625 257.273438 L 192.765625 209.695312 C 192.765625 205.121094 194.582031 200.734375 197.816406 197.5 C 201.050781 194.265625 205.4375 192.449219 210.011719 192.449219 Z M 210.011719 192.449219 " clip-rule="nonzero"/></clipPath><clipPath id="1c6e597629"><path d="M 286.476562 192.445312 L 369.878906 192.445312 L 369.878906 274.25 L 286.476562 274.25 Z M 286.476562 192.445312 " clip-rule="nonzero"/></clipPath><clipPath id="41f599117d"><path d="M 303.726562 192.445312 L 352.40625 192.445312 C 356.980469 192.445312 361.371094 194.261719 364.605469 197.496094 C 367.839844 200.734375 369.65625 205.121094 369.65625 209.695312 L 369.65625 257 C 369.65625 261.574219 367.839844 265.964844 364.605469 269.199219 C 361.371094 272.433594 356.980469 274.25 352.40625 274.25 L 303.726562 274.25 C 299.148438 274.25 294.761719 272.433594 291.527344 269.199219 C 288.292969 265.964844 286.476562 261.574219 286.476562 257 L 286.476562 209.695312 C 286.476562 205.121094 288.292969 200.734375 291.527344 197.496094 C 294.761719 194.261719 299.148438 192.445312 303.726562 192.445312 Z M 303.726562 192.445312 " clip-rule="nonzero"/></clipPath><clipPath id="6149761e2e"><path d="M 286.476562 192.445312 L 369.296875 192.445312 L 369.296875 274.449219 L 286.476562 274.449219 Z M 286.476562 192.445312 " clip-rule="nonzero"/></clipPath><clipPath id="94544077c0"><path d="M 303.722656 192.449219 L 352.398438 192.449219 C 356.972656 192.449219 361.359375 194.265625 364.59375 197.5 C 367.828125 200.734375 369.644531 205.121094 369.644531 209.695312 L 369.644531 256.992188 C 369.644531 261.566406 367.828125 265.953125 364.59375 269.1875 C 361.359375 272.421875 356.972656 274.242188 352.398438 274.242188 L 303.722656 274.242188 C 299.148438 274.242188 294.761719 272.421875 291.527344 269.1875 C 288.292969 265.953125 286.476562 261.566406 286.476562 256.992188 L 286.476562 209.695312 C 286.476562 205.121094 288.292969 200.734375 291.527344 197.5 C 294.761719 194.265625 299.148438 192.449219 303.722656 192.449219 Z M 303.722656 192.449219 " clip-rule="nonzero"/></clipPath><clipPath id="793796e90a"><path d="M 5.34375 284.140625 L 88.746094 284.140625 L 88.746094 365.945312 L 5.34375 365.945312 Z M 5.34375 284.140625 " clip-rule="nonzero"/></clipPath><clipPath id="48aeb0232f"><path d="M 22.59375 284.140625 L 71.273438 284.140625 C 75.851562 284.140625 80.238281 285.957031 83.472656 289.191406 C 86.707031 292.429688 88.523438 296.816406 88.523438 301.390625 L 88.523438 348.695312 C 88.523438 353.273438 86.707031 357.660156 83.472656 360.894531 C 80.238281 364.128906 75.851562 365.945312 71.273438 365.945312 L 22.59375 365.945312 C 18.019531 365.945312 13.628906 364.128906 10.394531 360.894531 C 7.160156 357.660156 5.34375 353.273438 5.34375 348.695312 L 5.34375 301.390625 C 5.34375 296.816406 7.160156 292.429688 10.394531 289.191406 C 13.628906 285.957031 18.019531 284.140625 22.59375 284.140625 Z M 22.59375 284.140625 " clip-rule="nonzero"/></clipPath><clipPath id="0c1fbe8659"><path d="M 5.34375 284.140625 L 88.167969 284.140625 L 88.167969 366 L 5.34375 366 Z M 5.34375 284.140625 " clip-rule="nonzero"/></clipPath><clipPath id="4b50737255"><path d="M 22.589844 284.144531 L 71.265625 284.144531 C 75.839844 284.144531 80.226562 285.960938 83.460938 289.195312 C 86.695312 292.429688 88.511719 296.816406 88.511719 301.390625 L 88.511719 348.6875 C 88.511719 353.261719 86.695312 357.652344 83.460938 360.886719 C 80.226562 364.121094 75.839844 365.9375 71.265625 365.9375 L 22.589844 365.9375 C 18.015625 365.9375 13.628906 364.121094 10.394531 360.886719 C 7.160156 357.652344 5.34375 353.261719 5.34375 348.6875 L 5.34375 301.390625 C 5.34375 296.816406 7.160156 292.429688 10.394531 289.195312 C 13.628906 285.960938 18.015625 284.144531 22.589844 284.144531 Z M 22.589844 284.144531 " clip-rule="nonzero"/></clipPath><clipPath id="3c47cdbc31"><path d="M 99.054688 284.140625 L 182.457031 284.140625 L 182.457031 365.945312 L 99.054688 365.945312 Z M 99.054688 284.140625 " clip-rule="nonzero"/></clipPath><clipPath id="91b1391022"><path d="M 116.304688 284.140625 L 164.984375 284.140625 C 169.558594 284.140625 173.949219 285.957031 177.183594 289.191406 C 180.417969 292.429688 182.234375 296.816406 182.234375 301.390625 L 182.234375 348.695312 C 182.234375 353.273438 180.417969 357.660156 177.183594 360.894531 C 173.949219 364.128906 169.558594 365.945312 164.984375 365.945312 L 116.304688 365.945312 C 111.730469 365.945312 107.339844 364.128906 104.105469 360.894531 C 100.871094 357.660156 99.054688 353.273438 99.054688 348.695312 L 99.054688 301.390625 C 99.054688 296.816406 100.871094 292.429688 104.105469 289.191406 C 107.339844 285.957031 111.730469 284.140625 116.304688 284.140625 Z M 116.304688 284.140625 " clip-rule="nonzero"/></clipPath><clipPath id="08d5dfb3c0"><path d="M 99.054688 284.140625 L 181.878906 284.140625 L 181.878906 366 L 99.054688 366 Z M 99.054688 284.140625 " clip-rule="nonzero"/></clipPath><clipPath id="40471202e7"><path d="M 116.300781 284.144531 L 164.976562 284.144531 C 169.550781 284.144531 173.9375 285.960938 177.171875 289.195312 C 180.40625 292.429688 182.222656 296.816406 182.222656 301.390625 L 182.222656 348.6875 C 182.222656 353.261719 180.40625 357.652344 177.171875 360.886719 C 173.9375 364.121094 169.550781 365.9375 164.976562 365.9375 L 116.300781 365.9375 C 111.726562 365.9375 107.339844 364.121094 104.105469 360.886719 C 100.871094 357.652344 99.054688 353.261719 99.054688 348.6875 L 99.054688 301.390625 C 99.054688 296.816406 100.871094 292.429688 104.105469 289.195312 C 107.339844 285.960938 111.726562 284.144531 116.300781 284.144531 Z M 116.300781 284.144531 " clip-rule="nonzero"/></clipPath><clipPath id="a8ebf95c8d"><path d="M 192.765625 284.140625 L 276 284.140625 L 276 366.226562 L 192.765625 366.226562 Z M 192.765625 284.140625 " clip-rule="nonzero"/></clipPath><clipPath id="84a823cb9c"><path d="M 210.015625 284.140625 L 258.695312 284.140625 C 263.269531 284.140625 267.660156 285.957031 270.894531 289.191406 C 274.128906 292.429688 275.945312 296.816406 275.945312 301.390625 L 275.945312 348.976562 C 275.945312 353.554688 274.128906 357.941406 270.894531 361.175781 C 267.660156 364.410156 263.269531 366.226562 258.695312 366.226562 L 210.015625 366.226562 C 205.441406 366.226562 201.050781 364.410156 197.816406 361.175781 C 194.582031 357.941406 192.765625 353.554688 192.765625 348.976562 L 192.765625 301.390625 C 192.765625 296.816406 194.582031 292.429688 197.816406 289.191406 C 201.050781 285.957031 205.441406 284.140625 210.015625 284.140625 Z M 210.015625 284.140625 " clip-rule="nonzero"/></clipPath><clipPath id="d4a665b7b3"><path d="M 192.765625 284.140625 L 275.585938 284.140625 L 275.585938 366.144531 L 192.765625 366.144531 Z M 192.765625 284.140625 " clip-rule="nonzero"/></clipPath><clipPath id="c62232e550"><path d="M 210.011719 284.144531 L 258.6875 284.144531 C 263.261719 284.144531 267.648438 285.960938 270.882812 289.195312 C 274.117188 292.429688 275.933594 296.816406 275.933594 301.390625 L 275.933594 348.972656 C 275.933594 353.546875 274.117188 357.933594 270.882812 361.167969 C 267.648438 364.402344 263.261719 366.21875 258.6875 366.21875 L 210.011719 366.21875 C 205.4375 366.21875 201.050781 364.402344 197.816406 361.167969 C 194.582031 357.933594 192.765625 353.546875 192.765625 348.972656 L 192.765625 301.390625 C 192.765625 296.816406 194.582031 292.429688 197.816406 289.195312 C 201.050781 285.960938 205.4375 284.144531 210.011719 284.144531 Z M 210.011719 284.144531 " clip-rule="nonzero"/></clipPath><clipPath id="e8efc82c7b"><path d="M 286.476562 284.140625 L 369.878906 284.140625 L 369.878906 365.945312 L 286.476562 365.945312 Z M 286.476562 284.140625 " clip-rule="nonzero"/></clipPath><clipPath id="88c2ebe586"><path d="M 303.726562 284.140625 L 352.40625 284.140625 C 356.980469 284.140625 361.371094 285.957031 364.605469 289.191406 C 367.839844 292.429688 369.65625 296.816406 369.65625 301.390625 L 369.65625 348.695312 C 369.65625 353.273438 367.839844 357.660156 364.605469 360.894531 C 361.371094 364.128906 356.980469 365.945312 352.40625 365.945312 L 303.726562 365.945312 C 299.148438 365.945312 294.761719 364.128906 291.527344 360.894531 C 288.292969 357.660156 286.476562 353.273438 286.476562 348.695312 L 286.476562 301.390625 C 286.476562 296.816406 288.292969 292.429688 291.527344 289.191406 C 294.761719 285.957031 299.148438 284.140625 303.726562 284.140625 Z M 303.726562 284.140625 " clip-rule="nonzero"/></clipPath><clipPath id="29999f14bb"><path d="M 286.476562 284.140625 L 369.296875 284.140625 L 369.296875 366 L 286.476562 366 Z M 286.476562 284.140625 " clip-rule="nonzero"/></clipPath><clipPath id="596bfbf0e2"><path d="M 303.722656 284.144531 L 352.398438 284.144531 C 356.972656 284.144531 361.359375 285.960938 364.59375 289.195312 C 367.828125 292.429688 369.644531 296.816406 369.644531 301.390625 L 369.644531 348.6875 C 369.644531 353.261719 367.828125 357.652344 364.59375 360.886719 C 361.359375 364.121094 356.972656 365.9375 352.398438 365.9375 L 303.722656 365.9375 C 299.148438 365.9375 294.761719 364.121094 291.527344 360.886719 C 288.292969 357.652344 286.476562 353.261719 286.476562 348.6875 L 286.476562 301.390625 C 286.476562 296.816406 288.292969 292.429688 291.527344 289.195312 C 294.761719 285.960938 299.148438 284.144531 303.722656 284.144531 Z M 303.722656 284.144531 " clip-rule="nonzero"/></clipPath></defs><g clip-path="url(#f9d9b4edc3)"><g clip-path="url(#ca1ee2c835)"><path fill="#00a96e" d="M 5.34375 9.054688 L 88.390625 9.054688 L 88.390625 91.140625 L 5.34375 91.140625 Z M 5.34375 9.054688 " fill-opacity="1" fill-rule="nonzero"/></g></g><g clip-path="url(#1d87b5372b)"><g clip-path="url(#117a1d1082)"><path stroke-linecap="butt" transform="matrix(0.820032, 0, 0, 0.820032, 5.342892, 9.056052)" fill="none" stroke-linejoin="miter" d="M 21.032035 -0.00166353 L 80.390393 -0.00166353 C 85.968488 -0.00166353 91.317933 2.218142 95.262136 6.162345 C 99.20634 10.106549 101.421382 15.455994 101.421382 21.034089 L 101.421382 79.053895 C 101.421382 84.631989 99.20634 89.981434 95.262136 93.925638 C 91.317933 97.869842 85.968488 100.084883 80.390393 100.084883 L 21.032035 100.084883 C 15.45394 100.084883 10.104495 97.869842 6.160292 93.925638 C 2.216088 89.981434 0.00104622 84.631989 0.00104622 79.053895 L 0.00104622 21.034089 C 0.00104622 15.455994 2.216088 10.106549 6.160292 6.162345 C 10.104495 2.218142 15.45394 -0.00166353 21.032035 -0.00166353 Z M 21.032035 -0.00166353 " stroke="#000000" stroke-width="7.316782" stroke-opacity="1" stroke-miterlimit="4"/></g></g><g fill="#000000" fill-opacity="1"><g transform="translate(30.315445, 63.995565)"><g><path d="M 14.359375 -2.640625 C 15.859375 -2.640625 17.234375 -2.925781 18.484375 -3.5 C 19.734375 -4.082031 20.796875 -4.925781 21.671875 -6.03125 C 22.546875 -7.132812 23.222656 -8.5 23.703125 -10.125 C 24.191406 -11.757812 24.4375 -13.632812 24.4375 -15.75 C 24.4375 -17.851562 24.191406 -19.722656 23.703125 -21.359375 C 23.222656 -22.992188 22.535156 -24.363281 21.640625 -25.46875 C 20.742188 -26.570312 19.679688 -27.398438 18.453125 -27.953125 C 17.222656 -28.515625 15.835938 -28.796875 14.296875 -28.796875 L 12.625 -28.796875 C 12.5625 -26.785156 12.53125 -24.765625 12.53125 -22.734375 C 12.53125 -20.703125 12.53125 -18.644531 12.53125 -16.5625 L 12.53125 -15.359375 C 12.53125 -13.117188 12.53125 -10.953125 12.53125 -8.859375 C 12.53125 -6.765625 12.5625 -4.691406 12.625 -2.640625 Z M 16.03125 -31.4375 C 18.363281 -31.4375 20.5 -31.097656 22.4375 -30.421875 C 24.375 -29.753906 26.035156 -28.753906 27.421875 -27.421875 C 28.816406 -26.097656 29.890625 -24.476562 30.640625 -22.5625 C 31.398438 -20.644531 31.78125 -18.4375 31.78125 -15.9375 C 31.78125 -13.34375 31.363281 -11.050781 30.53125 -9.0625 C 29.695312 -7.082031 28.535156 -5.421875 27.046875 -4.078125 C 25.554688 -2.734375 23.785156 -1.71875 21.734375 -1.03125 C 19.691406 -0.34375 17.472656 0 15.078125 0 L 1.53125 0 L 1.53125 -2.40625 L 5.421875 -2.828125 C 5.484375 -4.816406 5.515625 -6.84375 5.515625 -8.90625 C 5.515625 -10.96875 5.515625 -13.117188 5.515625 -15.359375 L 5.515625 -16.5625 C 5.515625 -18.570312 5.515625 -20.578125 5.515625 -22.578125 C 5.515625 -24.578125 5.484375 -26.585938 5.421875 -28.609375 L 1.53125 -29.046875 L 1.53125 -31.4375 Z M 16.03125 -31.4375 "/></g></g></g><g clip-path="url(#8b4db2002e)"><g clip-path="url(#7cd9350c49)"><path fill="#e7e1e3" d="M 99.054688 9.054688 L 182.101562 9.054688 L 182.101562 91.140625 L 99.054688 91.140625 Z M 99.054688 9.054688 " fill-opacity="1" fill-rule="nonzero"/></g></g><g clip-path="url(#f8dd2bac7c)"><g clip-path="url(#cfe84ce483)"><path stroke-linecap="butt" transform="matrix(0.820032, 0, 0, 0.820032, 99.053708, 9.056052)" fill="none" stroke-linejoin="miter" d="M 21.032184 -0.00166353 L 80.390542 -0.00166353 C 85.968636 -0.00166353 91.318082 2.218142 95.262285 6.162345 C 99.206489 10.106549 101.421531 15.455994 101.421531 21.034089 L 101.421531 79.053895 C 101.421531 84.631989 99.206489 89.981434 95.262285 93.925638 C 91.318082 97.869842 85.968636 100.084883 80.390542 100.084883 L 21.032184 100.084883 C 15.454089 100.084883 10.104644 97.869842 6.16044 93.925638 C 2.216237 89.981434 0.00119496 84.631989 0.00119496 79.053895 L 0.00119496 21.034089 C 0.00119496 15.455994 2.216237 10.106549 6.16044 6.162345 C 10.104644 2.218142 15.454089 -0.00166353 21.032184 -0.00166353 Z M 21.032184 -0.00166353 " stroke="#000000" stroke-width="7.316782" stroke-opacity="1" stroke-miterlimit="4"/></g></g><g fill="#000000" fill-opacity="1"><g transform="translate(123.64187, 63.995565)"><g><path d="M 8.875 -15.703125 C 8.875 -13.972656 9.019531 -12.28125 9.3125 -10.625 C 9.601562 -8.976562 10.078125 -7.503906 10.734375 -6.203125 C 11.390625 -4.910156 12.226562 -3.875 13.25 -3.09375 C 14.269531 -2.3125 15.515625 -1.921875 16.984375 -1.921875 C 18.460938 -1.921875 19.710938 -2.3125 20.734375 -3.09375 C 21.753906 -3.875 22.582031 -4.910156 23.21875 -6.203125 C 23.863281 -7.503906 24.335938 -8.976562 24.640625 -10.625 C 24.953125 -12.28125 25.109375 -13.972656 25.109375 -15.703125 C 25.109375 -17.421875 24.953125 -19.113281 24.640625 -20.78125 C 24.335938 -22.445312 23.863281 -23.925781 23.21875 -25.21875 C 22.582031 -26.519531 21.753906 -27.5625 20.734375 -28.34375 C 19.710938 -29.125 18.460938 -29.515625 16.984375 -29.515625 C 15.515625 -29.515625 14.269531 -29.125 13.25 -28.34375 C 12.226562 -27.5625 11.390625 -26.519531 10.734375 -25.21875 C 10.078125 -23.925781 9.601562 -22.445312 9.3125 -20.78125 C 9.019531 -19.113281 8.875 -17.421875 8.875 -15.703125 Z M 16.984375 -32.15625 C 18.878906 -32.15625 20.742188 -31.8125 22.578125 -31.125 C 24.421875 -30.4375 26.078125 -29.410156 27.546875 -28.046875 C 29.023438 -26.691406 30.210938 -24.984375 31.109375 -22.921875 C 32.003906 -20.859375 32.453125 -18.453125 32.453125 -15.703125 C 32.453125 -12.941406 32.003906 -10.535156 31.109375 -8.484375 C 30.210938 -6.441406 29.035156 -4.738281 27.578125 -3.375 C 26.117188 -2.019531 24.460938 -1 22.609375 -0.3125 C 20.753906 0.375 18.878906 0.71875 16.984375 0.71875 C 15.097656 0.71875 13.226562 0.375 11.375 -0.3125 C 9.519531 -1 7.863281 -2.019531 6.40625 -3.375 C 4.945312 -4.738281 3.769531 -6.441406 2.875 -8.484375 C 1.976562 -10.535156 1.53125 -12.941406 1.53125 -15.703125 C 1.53125 -18.453125 1.976562 -20.859375 2.875 -22.921875 C 3.769531 -24.984375 4.953125 -26.691406 6.421875 -28.046875 C 7.898438 -29.410156 9.554688 -30.4375 11.390625 -31.125 C 13.234375 -31.8125 15.097656 -32.15625 16.984375 -32.15625 Z M 16.984375 -32.15625 "/></g></g></g><g clip-path="url(#9f3c78a92e)"><g clip-path="url(#ee9767f899)"><path fill="#e7e1e3" d="M 192.765625 9.054688 L 275.8125 9.054688 L 275.8125 91.140625 L 192.765625 91.140625 Z M 192.765625 9.054688 " fill-opacity="1" fill-rule="nonzero"/></g></g><g clip-path="url(#42da8f5d9f)"><g clip-path="url(#195498e87e)"><path stroke-linecap="butt" transform="matrix(0.820032, 0, 0, 0.820032, 192.764493, 9.056052)" fill="none" stroke-linejoin="miter" d="M 21.03237 -0.00166353 L 80.390728 -0.00166353 C 85.968822 -0.00166353 91.318268 2.218142 95.262471 6.162345 C 99.206675 10.106549 101.421716 15.455994 101.421716 21.034089 L 101.421716 79.053895 C 101.421716 84.631989 99.206675 89.981434 95.262471 93.925638 C 91.318268 97.869842 85.968822 100.084883 80.390728 100.084883 L 21.03237 100.084883 C 15.454275 100.084883 10.10483 97.869842 6.160626 93.925638 C 2.216423 89.981434 0.00138087 84.631989 0.00138087 79.053895 L 0.00138087 21.034089 C 0.00138087 15.455994 2.216423 10.106549 6.160626 6.162345 C 10.10483 2.218142 15.454275 -0.00166353 21.03237 -0.00166353 Z M 21.03237 -0.00166353 " stroke="#000000" stroke-width="7.316782" stroke-opacity="1" stroke-miterlimit="4"/></g></g><g fill="#000000" fill-opacity="1"><g transform="translate(210.664282, 63.995565)"><g><path d="M 47.140625 -29.046875 L 43.25 -28.421875 L 34.265625 0.484375 L 31.828125 0.484375 L 23.328125 -23.46875 L 14.875 0.484375 L 12.484375 0.484375 L 3.21875 -28.703125 L 0.234375 -29.046875 L 0.234375 -31.4375 L 14.296875 -31.4375 L 14.296875 -29.046875 L 10.46875 -28.609375 L 15.890625 -10.265625 L 22.65625 -28.609375 L 18.859375 -29.046875 L 18.859375 -31.4375 L 32.453125 -31.4375 L 32.453125 -29.046875 L 28.75 -28.609375 L 34.984375 -10.03125 L 40.703125 -28.421875 L 36.28125 -29.046875 L 36.28125 -31.4375 L 47.140625 -31.4375 Z M 47.140625 -29.046875 "/></g></g></g><g clip-path="url(#779ed6ef32)"><g clip-path="url(#565f0f87c2)"><path fill="#e7e1e3" d="M 286.476562 9.054688 L 369.523438 9.054688 L 369.523438 91.140625 L 286.476562 91.140625 Z M 286.476562 9.054688 " fill-opacity="1" fill-rule="nonzero"/></g></g><g clip-path="url(#d1c02b48e9)"><g clip-path="url(#781627c04a)"><path stroke-linecap="butt" transform="matrix(0.820032, 0, 0, 0.820032, 286.475287, 9.056052)" fill="none" stroke-linejoin="miter" d="M 21.032544 -0.00166353 L 80.390902 -0.00166353 C 85.968997 -0.00166353 91.318442 2.218142 95.262645 6.162345 C 99.206849 10.106549 101.421891 15.455994 101.421891 21.034089 L 101.421891 79.053895 C 101.421891 84.631989 99.206849 89.981434 95.262645 93.925638 C 91.318442 97.869842 85.968997 100.084883 80.390902 100.084883 L 21.032544 100.084883 C 15.454449 100.084883 10.105004 97.869842 6.1608 93.925638 C 2.216597 89.981434 0.00155507 84.631989 0.00155507 79.053895 L 0.00155507 21.034089 C 0.00155507 15.455994 2.216597 10.106549 6.1608 6.162345 C 10.105004 2.218142 15.454449 -0.00166353 21.032544 -0.00166353 Z M 21.032544 -0.00166353 " stroke="#000000" stroke-width="7.316782" stroke-opacity="1" stroke-miterlimit="4"/></g></g><g fill="#000000" fill-opacity="1"><g transform="translate(309.794993, 63.995565)"><g><path d="M 35.28125 -29.046875 L 30.8125 -28.421875 L 30.8125 0.484375 L 28.421875 0.484375 L 8.546875 -24.234375 L 8.546875 -3.03125 L 14.015625 -2.40625 L 14.015625 0 L 1.25 0 L 1.25 -2.40625 L 5.71875 -3.03125 L 5.71875 -27.796875 L 4.984375 -28.65625 L 1.734375 -28.984375 L 1.734375 -31.4375 L 11.1875 -31.4375 L 28.03125 -10.171875 L 28.03125 -28.421875 L 22.515625 -29.046875 L 22.515625 -31.4375 L 35.28125 -31.4375 Z M 35.28125 -29.046875 "/></g></g></g><g clip-path="url(#74d6071bf9)"><g clip-path="url(#a5279d9145)"><path fill="#faf7f8" d="M 5.34375 100.75 L 88.425781 100.75 L 88.425781 182.554688 L 5.34375 182.554688 Z M 5.34375 100.75 " fill-opacity="1" fill-rule="nonzero"/></g></g><g clip-path="url(#797265c3d7)"><g clip-path="url(#ee13f21f4c)"><path stroke-linecap="butt" transform="matrix(0.820032, 0, 0, 0.820032, 5.342892, 100.751653)" fill="none" stroke-linejoin="miter" d="M 21.032035 -0.00201527 L 80.390393 -0.00201527 C 85.968488 -0.00201527 91.317933 2.21779 95.262136 6.161994 C 99.20634 10.106197 101.421382 15.455642 101.421382 21.033737 L 101.421382 78.710569 C 101.421382 84.288663 99.20634 89.638109 95.262136 93.582312 C 91.317933 97.526516 85.968488 99.746321 80.390393 99.746321 L 21.032035 99.746321 C 15.45394 99.746321 10.104495 97.526516 6.160292 93.582312 C 2.216088 89.638109 0.00104622 84.288663 0.00104622 78.710569 L 0.00104622 21.033737 C 0.00104622 15.455642 2.216088 10.106197 6.160292 6.161994 C 10.104495 2.21779 15.45394 -0.00201527 21.032035 -0.00201527 Z M 21.032035 -0.00201527 " stroke="#000000" stroke-width="7.316782" stroke-opacity="1" stroke-miterlimit="4"/></g></g><g clip-path="url(#063abe993b)"><g clip-path="url(#1f57d0f1c8)"><path fill="#faf7f8" d="M 99.054688 100.75 L 182.136719 100.75 L 182.136719 182.554688 L 99.054688 182.554688 Z M 99.054688 100.75 " fill-opacity="1" fill-rule="nonzero"/></g></g><g clip-path="url(#8da2d6adc7)"><g clip-path="url(#0fdba34f22)"><path stroke-linecap="butt" transform="matrix(0.820032, 0, 0, 0.820032, 99.053708, 100.751653)" fill="none" stroke-linejoin="miter" d="M 21.032184 -0.00201527 L 80.390542 -0.00201527 C 85.968636 -0.00201527 91.318082 2.21779 95.262285 6.161994 C 99.206489 10.106197 101.421531 15.455642 101.421531 21.033737 L 101.421531 78.710569 C 101.421531 84.288663 99.206489 89.638109 95.262285 93.582312 C 91.318082 97.526516 85.968636 99.746321 80.390542 99.746321 L 21.032184 99.746321 C 15.454089 99.746321 10.104644 97.526516 6.16044 93.582312 C 2.216237 89.638109 0.00119496 84.288663 0.00119496 78.710569 L 0.00119496 21.033737 C 0.00119496 15.455642 2.216237 10.106197 6.16044 6.161994 C 10.104644 2.21779 15.454089 -0.00201527 21.032184 -0.00201527 Z M 21.032184 -0.00201527 " stroke="#000000" stroke-width="7.316782" stroke-opacity="1" stroke-miterlimit="4"/></g></g><g clip-path="url(#a59596edf5)"><g clip-path="url(#9b7690aed3)"><path fill="#e7e1e3" d="M 192.765625 100.75 L 275.8125 100.75 L 275.8125 182.835938 L 192.765625 182.835938 Z M 192.765625 100.75 " fill-opacity="1" fill-rule="nonzero"/></g></g><g clip-path="url(#e5d5627743)"><g clip-path="url(#9e99fbcf57)"><path stroke-linecap="butt" transform="matrix(0.820032, 0, 0, 0.820032, 192.764493, 100.751895)" fill="none" stroke-linejoin="miter" d="M 21.03237 -0.00231086 L 80.390728 -0.00231086 C 85.968822 -0.00231086 91.318268 2.217495 95.262471 6.161698 C 99.206675 10.105902 101.421716 15.455347 101.421716 21.033441 L 101.421716 79.053247 C 101.421716 84.631342 99.206675 89.980787 95.262471 93.924991 C 91.318268 97.869194 85.968822 100.089 80.390728 100.089 L 21.03237 100.089 C 15.454275 100.089 10.10483 97.869194 6.160626 93.924991 C 2.216423 89.980787 0.00138087 84.631342 0.00138087 79.053247 L 0.00138087 21.033441 C 0.00138087 15.455347 2.216423 10.105902 6.160626 6.161698 C 10.10483 2.217495 15.454275 -0.00231086 21.03237 -0.00231086 Z M 21.03237 -0.00231086 " stroke="#000000" stroke-width="7.316782" stroke-opacity="1" stroke-miterlimit="4"/></g></g><g fill="#000000" fill-opacity="1"><g transform="translate(217.352672, 155.6914)"><g><path d="M 8.875 -15.703125 C 8.875 -13.972656 9.019531 -12.28125 9.3125 -10.625 C 9.601562 -8.976562 10.078125 -7.503906 10.734375 -6.203125 C 11.390625 -4.910156 12.226562 -3.875 13.25 -3.09375 C 14.269531 -2.3125 15.515625 -1.921875 16.984375 -1.921875 C 18.460938 -1.921875 19.710938 -2.3125 20.734375 -3.09375 C 21.753906 -3.875 22.582031 -4.910156 23.21875 -6.203125 C 23.863281 -7.503906 24.335938 -8.976562 24.640625 -10.625 C 24.953125 -12.28125 25.109375 -13.972656 25.109375 -15.703125 C 25.109375 -17.421875 24.953125 -19.113281 24.640625 -20.78125 C 24.335938 -22.445312 23.863281 -23.925781 23.21875 -25.21875 C 22.582031 -26.519531 21.753906 -27.5625 20.734375 -28.34375 C 19.710938 -29.125 18.460938 -29.515625 16.984375 -29.515625 C 15.515625 -29.515625 14.269531 -29.125 13.25 -28.34375 C 12.226562 -27.5625 11.390625 -26.519531 10.734375 -25.21875 C 10.078125 -23.925781 9.601562 -22.445312 9.3125 -20.78125 C 9.019531 -19.113281 8.875 -17.421875 8.875 -15.703125 Z M 16.984375 -32.15625 C 18.878906 -32.15625 20.742188 -31.8125 22.578125 -31.125 C 24.421875 -30.4375 26.078125 -29.410156 27.546875 -28.046875 C 29.023438 -26.691406 30.210938 -24.984375 31.109375 -22.921875 C 32.003906 -20.859375 32.453125 -18.453125 32.453125 -15.703125 C 32.453125 -12.941406 32.003906 -10.535156 31.109375 -8.484375 C 30.210938 -6.441406 29.035156 -4.738281 27.578125 -3.375 C 26.117188 -2.019531 24.460938 -1 22.609375 -0.3125 C 20.753906 0.375 18.878906 0.71875 16.984375 0.71875 C 15.097656 0.71875 13.226562 0.375 11.375 -0.3125 C 9.519531 -1 7.863281 -2.019531 6.40625 -3.375 C 4.945312 -4.738281 3.769531 -6.441406 2.875 -8.484375 C 1.976562 -10.535156 1.53125 -12.941406 1.53125 -15.703125 C 1.53125 -18.453125 1.976562 -20.859375 2.875 -22.921875 C 3.769531 -24.984375 4.953125 -26.691406 6.421875 -28.046875 C 7.898438 -29.410156 9.554688 -30.4375 11.390625 -31.125 C 13.234375 -31.8125 15.097656 -32.15625 16.984375 -32.15625 Z M 16.984375 -32.15625 "/></g></g></g><g clip-path="url(#afc9069d3a)"><g clip-path="url(#82b024c65c)"><path fill="#faf7f8" d="M 286.476562 100.75 L 369.558594 100.75 L 369.558594 182.554688 L 286.476562 182.554688 Z M 286.476562 100.75 " fill-opacity="1" fill-rule="nonzero"/></g></g><g clip-path="url(#2e235bcec0)"><g clip-path="url(#932291e470)"><path stroke-linecap="butt" transform="matrix(0.820032, 0, 0, 0.820032, 286.475287, 100.751653)" fill="none" stroke-linejoin="miter" d="M 21.032544 -0.00201527 L 80.390902 -0.00201527 C 85.968997 -0.00201527 91.318442 2.21779 95.262645 6.161994 C 99.206849 10.106197 101.421891 15.455642 101.421891 21.033737 L 101.421891 78.710569 C 101.421891 84.288663 99.206849 89.638109 95.262645 93.582312 C 91.318442 97.526516 85.968997 99.746321 80.390902 99.746321 L 21.032544 99.746321 C 15.454449 99.746321 10.105004 97.526516 6.1608 93.582312 C 2.216597 89.638109 0.00155507 84.288663 0.00155507 78.710569 L 0.00155507 21.033737 C 0.00155507 15.455642 2.216597 10.106197 6.1608 6.161994 C 10.105004 2.21779 15.454449 -0.00201527 21.032544 -0.00201527 Z M 21.032544 -0.00201527 " stroke="#000000" stroke-width="7.316782" stroke-opacity="1" stroke-miterlimit="4"/></g></g><g clip-path="url(#3fbe5ec91b)"><g clip-path="url(#e6fa226daf)"><path fill="#faf7f8" d="M 5.34375 192.445312 L 88.425781 192.445312 L 88.425781 274.25 L 5.34375 274.25 Z M 5.34375 192.445312 " fill-opacity="1" fill-rule="nonzero"/></g></g><g clip-path="url(#e20cd956ab)"><g clip-path="url(#2c6a389634)"><path stroke-linecap="butt" transform="matrix(0.820032, 0, 0, 0.820032, 5.342892, 192.447467)" fill="none" stroke-linejoin="miter" d="M 21.032035 0.00213575 L 80.390393 0.00213575 C 85.968488 0.00213575 91.317933 2.217178 95.262136 6.161381 C 99.20634 10.105585 101.421382 15.45503 101.421382 21.033125 L 101.421382 78.709956 C 101.421382 84.288051 99.20634 89.637496 95.262136 93.5817 C 91.317933 97.525903 85.968488 99.745709 80.390393 99.745709 L 21.032035 99.745709 C 15.45394 99.745709 10.104495 97.525903 6.160292 93.5817 C 2.216088 89.637496 0.00104622 84.288051 0.00104622 78.709956 L 0.00104622 21.033125 C 0.00104622 15.45503 2.216088 10.105585 6.160292 6.161381 C 10.104495 2.217178 15.45394 0.00213575 21.032035 0.00213575 Z M 21.032035 0.00213575 " stroke="#000000" stroke-width="7.316782" stroke-opacity="1" stroke-miterlimit="4"/></g></g><g clip-path="url(#b27998db31)"><g clip-path="url(#76fc80c56c)"><path fill="#faf7f8" d="M 99.054688 192.445312 L 182.136719 192.445312 L 182.136719 274.25 L 99.054688 274.25 Z M 99.054688 192.445312 " fill-opacity="1" fill-rule="nonzero"/></g></g><g clip-path="url(#db71edbbac)"><g clip-path="url(#88e799551e)"><path stroke-linecap="butt" transform="matrix(0.820032, 0, 0, 0.820032, 99.053708, 192.447467)" fill="none" stroke-linejoin="miter" d="M 21.032184 0.00213575 L 80.390542 0.00213575 C 85.968636 0.00213575 91.318082 2.217178 95.262285 6.161381 C 99.206489 10.105585 101.421531 15.45503 101.421531 21.033125 L 101.421531 78.709956 C 101.421531 84.288051 99.206489 89.637496 95.262285 93.5817 C 91.318082 97.525903 85.968636 99.745709 80.390542 99.745709 L 21.032184 99.745709 C 15.454089 99.745709 10.104644 97.525903 6.16044 93.5817 C 2.216237 89.637496 0.00119496 84.288051 0.00119496 78.709956 L 0.00119496 21.033125 C 0.00119496 15.45503 2.216237 10.105585 6.16044 6.161381 C 10.104644 2.217178 15.454089 0.00213575 21.032184 0.00213575 Z M 21.032184 0.00213575 " stroke="#000000" stroke-width="7.316782" stroke-opacity="1" stroke-miterlimit="4"/></g></g><g clip-path="url(#7c3ce4635b)"><g clip-path="url(#c913970cfc)"><path fill="#e7e1e3" d="M 192.765625 192.445312 L 275.8125 192.445312 L 275.8125 274.53125 L 192.765625 274.53125 Z M 192.765625 192.445312 " fill-opacity="1" fill-rule="nonzero"/></g></g><g clip-path="url(#e7640f28ba)"><g clip-path="url(#e6a9b6f474)"><path stroke-linecap="butt" transform="matrix(0.820032, 0, 0, 0.820032, 192.764493, 192.447717)" fill="none" stroke-linejoin="miter" d="M 21.03237 0.00183138 L 80.390728 0.00183138 C 85.968822 0.00183138 91.318268 2.216873 95.262471 6.161077 C 99.206675 10.10528 101.421716 15.454725 101.421716 21.03282 L 101.421716 79.052626 C 101.421716 84.630721 99.206675 89.984929 95.262471 93.929133 C 91.318268 97.873337 85.968822 100.088378 80.390728 100.088378 L 21.03237 100.088378 C 15.454275 100.088378 10.10483 97.873337 6.160626 93.929133 C 2.216423 89.984929 0.00138087 84.630721 0.00138087 79.052626 L 0.00138087 21.03282 C 0.00138087 15.454725 2.216423 10.10528 6.160626 6.161077 C 10.10483 2.216873 15.454275 0.00183138 21.03237 0.00183138 Z M 21.03237 0.00183138 " stroke="#000000" stroke-width="7.316782" stroke-opacity="1" stroke-miterlimit="4"/></g></g><g fill="#000000" fill-opacity="1"><g transform="translate(218.249583, 247.38723)"><g><path d="M 14.546875 -16.75 C 15.765625 -16.75 16.796875 -16.914062 17.640625 -17.25 C 18.484375 -17.59375 19.171875 -18.039062 19.703125 -18.59375 C 20.234375 -19.15625 20.617188 -19.820312 20.859375 -20.59375 C 21.097656 -21.363281 21.21875 -22.179688 21.21875 -23.046875 C 21.21875 -24.960938 20.6875 -26.398438 19.625 -27.359375 C 18.570312 -28.316406 16.878906 -28.796875 14.546875 -28.796875 L 12.53125 -28.796875 C 12.46875 -26.816406 12.4375 -24.828125 12.4375 -22.828125 C 12.4375 -20.828125 12.4375 -18.800781 12.4375 -16.75 Z M 31.875 -2.40625 L 31.875 0 C 30.914062 0.1875 30.066406 0.3125 29.328125 0.375 C 28.585938 0.445312 27.882812 0.484375 27.21875 0.484375 C 26.289062 0.484375 25.445312 0.425781 24.6875 0.3125 C 23.9375 0.195312 23.273438 0 22.703125 -0.28125 C 22.128906 -0.570312 21.648438 -0.976562 21.265625 -1.5 C 20.878906 -2.03125 20.609375 -2.710938 20.453125 -3.546875 L 19.203125 -9.9375 C 18.878906 -11.5 18.316406 -12.582031 17.515625 -13.1875 C 16.710938 -13.800781 15.515625 -14.109375 13.921875 -14.109375 L 12.4375 -14.109375 C 12.4375 -12.222656 12.4375 -10.34375 12.4375 -8.46875 C 12.4375 -6.59375 12.46875 -4.710938 12.53125 -2.828125 L 16.515625 -2.40625 L 16.515625 0 L 1.53125 0 L 1.53125 -2.40625 L 5.421875 -2.828125 C 5.484375 -4.816406 5.515625 -6.8125 5.515625 -8.8125 C 5.515625 -10.8125 5.515625 -12.832031 5.515625 -14.875 L 5.515625 -16.5625 C 5.515625 -18.570312 5.515625 -20.578125 5.515625 -22.578125 C 5.515625 -24.578125 5.484375 -26.585938 5.421875 -28.609375 L 1.53125 -29.046875 L 1.53125 -31.4375 L 16.515625 -31.4375 C 20.128906 -31.4375 22.9375 -30.734375 24.9375 -29.328125 C 26.9375 -27.921875 27.9375 -25.984375 27.9375 -23.515625 C 27.9375 -22.753906 27.816406 -21.960938 27.578125 -21.140625 C 27.335938 -20.328125 26.9375 -19.539062 26.375 -18.78125 C 25.8125 -18.03125 25.070312 -17.359375 24.15625 -16.765625 C 23.25 -16.179688 22.125 -15.710938 20.78125 -15.359375 C 22.320312 -14.910156 23.585938 -14.164062 24.578125 -13.125 C 25.566406 -12.082031 26.238281 -10.695312 26.59375 -8.96875 L 27.890625 -2.828125 Z M 31.875 -2.40625 "/></g></g></g><g clip-path="url(#1c6e597629)"><g clip-path="url(#41f599117d)"><path fill="#faf7f8" d="M 286.476562 192.445312 L 369.558594 192.445312 L 369.558594 274.25 L 286.476562 274.25 Z M 286.476562 192.445312 " fill-opacity="1" fill-rule="nonzero"/></g></g><g clip-path="url(#6149761e2e)"><g clip-path="url(#94544077c0)"><path stroke-linecap="butt" transform="matrix(0.820032, 0, 0, 0.820032, 286.475287, 192.447467)" fill="none" stroke-linejoin="miter" d="M 21.032544 0.00213575 L 80.390902 0.00213575 C 85.968997 0.00213575 91.318442 2.217178 95.262645 6.161381 C 99.206849 10.105585 101.421891 15.45503 101.421891 21.033125 L 101.421891 78.709956 C 101.421891 84.288051 99.206849 89.637496 95.262645 93.5817 C 91.318442 97.525903 85.968997 99.745709 80.390902 99.745709 L 21.032544 99.745709 C 15.454449 99.745709 10.105004 97.525903 6.1608 93.5817 C 2.216597 89.637496 0.00155507 84.288051 0.00155507 78.709956 L 0.00155507 21.033125 C 0.00155507 15.45503 2.216597 10.105585 6.1608 6.161381 C 10.105004 2.217178 15.454449 0.00213575 21.032544 0.00213575 Z M 21.032544 0.00213575 " stroke="#000000" stroke-width="7.316782" stroke-opacity="1" stroke-miterlimit="4"/></g></g><g clip-path="url(#793796e90a)"><g clip-path="url(#48aeb0232f)"><path fill="#faf7f8" d="M 5.34375 284.140625 L 88.425781 284.140625 L 88.425781 365.945312 L 5.34375 365.945312 Z M 5.34375 284.140625 " fill-opacity="1" fill-rule="nonzero"/></g></g><g clip-path="url(#0c1fbe8659)"><g clip-path="url(#4b50737255)"><path stroke-linecap="butt" transform="matrix(0.820032, 0, 0, 0.820032, 5.342892, 284.143253)" fill="none" stroke-linejoin="miter" d="M 21.032035 0.00155836 L 80.390393 0.00155836 C 85.968488 0.00155836 91.317933 2.2166 95.262136 6.160804 C 99.20634 10.105007 101.421382 15.454452 101.421382 21.032547 L 101.421382 78.709379 C 101.421382 84.287473 99.20634 89.641682 95.262136 93.585886 C 91.317933 97.530089 85.968488 99.745131 80.390393 99.745131 L 21.032035 99.745131 C 15.45394 99.745131 10.104495 97.530089 6.160292 93.585886 C 2.216088 89.641682 0.00104622 84.287473 0.00104622 78.709379 L 0.00104622 21.032547 C 0.00104622 15.454452 2.216088 10.105007 6.160292 6.160804 C 10.104495 2.2166 15.45394 0.00155836 21.032035 0.00155836 Z M 21.032035 0.00155836 " stroke="#000000" stroke-width="7.316782" stroke-opacity="1" stroke-miterlimit="4"/></g></g><g clip-path="url(#3c47cdbc31)"><g clip-path="url(#91b1391022)"><path fill="#faf7f8" d="M 99.054688 284.140625 L 182.136719 284.140625 L 182.136719 365.945312 L 99.054688 365.945312 Z M 99.054688 284.140625 " fill-opacity="1" fill-rule="nonzero"/></g></g><g clip-path="url(#08d5dfb3c0)"><g clip-path="url(#40471202e7)"><path stroke-linecap="butt" transform="matrix(0.820032, 0, 0, 0.820032, 99.053708, 284.143253)" fill="none" stroke-linejoin="miter" d="M 21.032184 0.00155836 L 80.390542 0.00155836 C 85.968636 0.00155836 91.318082 2.2166 95.262285 6.160804 C 99.206489 10.105007 101.421531 15.454452 101.421531 21.032547 L 101.421531 78.709379 C 101.421531 84.287473 99.206489 89.641682 95.262285 93.585886 C 91.318082 97.530089 85.968636 99.745131 80.390542 99.745131 L 21.032184 99.745131 C 15.454089 99.745131 10.104644 97.530089 6.16044 93.585886 C 2.216237 89.641682 0.00119496 84.287473 0.00119496 78.709379 L 0.00119496 21.032547 C 0.00119496 15.454452 2.216237 10.105007 6.16044 6.160804 C 10.104644 2.2166 15.454089 0.00155836 21.032184 0.00155836 Z M 21.032184 0.00155836 " stroke="#000000" stroke-width="7.316782" stroke-opacity="1" stroke-miterlimit="4"/></g></g><g clip-path="url(#a8ebf95c8d)"><g clip-path="url(#84a823cb9c)"><path fill="#ef9fbc" d="M 192.765625 284.140625 L 275.8125 284.140625 L 275.8125 366.226562 L 192.765625 366.226562 Z M 192.765625 284.140625 " fill-opacity="1" fill-rule="nonzero"/></g></g><g clip-path="url(#d4a665b7b3)"><g clip-path="url(#c62232e550)"><path stroke-linecap="butt" transform="matrix(0.820032, 0, 0, 0.820032, 192.764493, 284.143486)" fill="none" stroke-linejoin="miter" d="M 21.03237 0.00127447 L 80.390728 0.00127447 C 85.968822 0.00127447 91.318268 2.216316 95.262471 6.16052 C 99.206675 10.104723 101.421716 15.454169 101.421716 21.032263 L 101.421716 79.056833 C 101.421716 84.634927 99.206675 89.984372 95.262471 93.928576 C 91.318268 97.87278 85.968822 100.087821 80.390728 100.087821 L 21.03237 100.087821 C 15.454275 100.087821 10.10483 97.87278 6.160626 93.928576 C 2.216423 89.984372 0.00138087 84.634927 0.00138087 79.056833 L 0.00138087 21.032263 C 0.00138087 15.454169 2.216423 10.104723 6.160626 6.16052 C 10.10483 2.216316 15.454275 0.00127447 21.03237 0.00127447 Z M 21.03237 0.00127447 " stroke="#000000" stroke-width="7.316782" stroke-opacity="1" stroke-miterlimit="4"/></g></g><g fill="#000000" fill-opacity="1"><g transform="translate(217.737062, 339.08303)"><g><path d="M 14.359375 -2.640625 C 15.859375 -2.640625 17.234375 -2.925781 18.484375 -3.5 C 19.734375 -4.082031 20.796875 -4.925781 21.671875 -6.03125 C 22.546875 -7.132812 23.222656 -8.5 23.703125 -10.125 C 24.191406 -11.757812 24.4375 -13.632812 24.4375 -15.75 C 24.4375 -17.851562 24.191406 -19.722656 23.703125 -21.359375 C 23.222656 -22.992188 22.535156 -24.363281 21.640625 -25.46875 C 20.742188 -26.570312 19.679688 -27.398438 18.453125 -27.953125 C 17.222656 -28.515625 15.835938 -28.796875 14.296875 -28.796875 L 12.625 -28.796875 C 12.5625 -26.785156 12.53125 -24.765625 12.53125 -22.734375 C 12.53125 -20.703125 12.53125 -18.644531 12.53125 -16.5625 L 12.53125 -15.359375 C 12.53125 -13.117188 12.53125 -10.953125 12.53125 -8.859375 C 12.53125 -6.765625 12.5625 -4.691406 12.625 -2.640625 Z M 16.03125 -31.4375 C 18.363281 -31.4375 20.5 -31.097656 22.4375 -30.421875 C 24.375 -29.753906 26.035156 -28.753906 27.421875 -27.421875 C 28.816406 -26.097656 29.890625 -24.476562 30.640625 -22.5625 C 31.398438 -20.644531 31.78125 -18.4375 31.78125 -15.9375 C 31.78125 -13.34375 31.363281 -11.050781 30.53125 -9.0625 C 29.695312 -7.082031 28.535156 -5.421875 27.046875 -4.078125 C 25.554688 -2.734375 23.785156 -1.71875 21.734375 -1.03125 C 19.691406 -0.34375 17.472656 0 15.078125 0 L 1.53125 0 L 1.53125 -2.40625 L 5.421875 -2.828125 C 5.484375 -4.816406 5.515625 -6.84375 5.515625 -8.90625 C 5.515625 -10.96875 5.515625 -13.117188 5.515625 -15.359375 L 5.515625 -16.5625 C 5.515625 -18.570312 5.515625 -20.578125 5.515625 -22.578125 C 5.515625 -24.578125 5.484375 -26.585938 5.421875 -28.609375 L 1.53125 -29.046875 L 1.53125 -31.4375 Z M 16.03125 -31.4375 "/></g></g></g><g clip-path="url(#e8efc82c7b)"><g clip-path="url(#88c2ebe586)"><path fill="#faf7f8" d="M 286.476562 284.140625 L 369.558594 284.140625 L 369.558594 365.945312 L 286.476562 365.945312 Z M 286.476562 284.140625 " fill-opacity="1" fill-rule="nonzero"/></g></g><g clip-path="url(#29999f14bb)"><g clip-path="url(#596bfbf0e2)"><path stroke-linecap="butt" transform="matrix(0.820032, 0, 0, 0.820032, 286.475287, 284.143253)" fill="none" stroke-linejoin="miter" d="M 21.032544 0.00155836 L 80.390902 0.00155836 C 85.968997 0.00155836 91.318442 2.2166 95.262645 6.160804 C 99.206849 10.105007 101.421891 15.454452 101.421891 21.032547 L 101.421891 78.709379 C 101.421891 84.287473 99.206849 89.641682 95.262645 93.585886 C 91.318442 97.530089 85.968997 99.745131 80.390902 99.745131 L 21.032544 99.745131 C 15.454449 99.745131 10.105004 97.530089 6.1608 93.585886 C 2.216597 89.641682 0.00155507 84.287473 0.00155507 78.709379 L 0.00155507 21.032547 C 0.00155507 15.454452 2.216597 10.105007 6.1608 6.160804 C 10.105004 2.2166 15.454449 0.00155836 21.032544 0.00155836 Z M 21.032544 0.00155836 " stroke="#000000" stroke-width="7.316782" stroke-opacity="1" stroke-miterlimit="4"/></g></g></svg>